<svg version="1.1" id="Layer_1" xmlns="http://www.w3.org/2000/svg" xmlns:xlink="http://www.w3.org/1999/xlink" x="0px" y="0px"
	 width="100%" viewBox="0 0 512 512" enable-background="new 0 0 512 512" xml:space="preserve">
<path fill="#000000" opacity="1.000000" stroke="none" 
	d="
M386.615356,192.468033 
	C382.888000,217.397430 374.765045,239.937103 357.552155,258.400970 
	C346.738953,270.000061 335.083405,280.645813 320.779755,287.876556 
	C306.401215,295.145203 291.009460,299.177948 275.095917,301.175415 
	C256.654663,303.490173 238.384460,301.940491 220.309662,297.914185 
	C194.438629,292.151215 173.431046,278.554565 155.614349,259.034363 
	C137.122009,238.773880 127.722572,214.868286 124.697594,188.134155 
	C122.113907,165.300018 123.099792,142.656342 130.639847,120.683510 
	C137.233047,101.469925 147.868149,84.816254 162.709045,70.874702 
	C175.995438,58.393436 191.231659,49.123341 208.420181,43.121773 
	C217.694443,39.883568 227.380081,38.253563 237.051147,36.809643 
	C257.080902,33.819126 276.895020,35.904331 296.286224,41.049969 
	C325.048584,48.682339 347.634766,65.451599 365.114105,89.390625 
	C377.988007,107.022255 384.775391,126.920128 387.289276,148.378143 
	C388.994049,162.929871 389.368011,177.519608 386.615356,192.468033 
M320.992371,60.002316 
	C320.992371,60.002316 321.019470,60.032009 320.605896,59.496780 
	C311.337585,53.731598 301.175323,50.059235 290.716492,47.306805 
	C268.815247,41.543095 246.774979,41.433697 224.728363,46.584736 
	C213.932281,49.107170 203.553101,52.769997 193.880463,58.532120 
	C204.089844,56.084743 214.406998,56.638992 224.690796,56.681980 
	C230.469604,56.706131 233.848434,59.310783 234.321854,63.926136 
	C235.051605,71.040375 233.746475,72.680412 226.833939,74.349808 
	C217.324524,76.646355 207.560150,77.903450 198.301102,81.215271 
	C189.624222,84.318855 184.933578,80.999794 184.614319,71.590302 
	C184.540314,69.408768 185.467102,66.916794 183.399506,65.119812 
	C182.935898,65.170448 182.565964,65.119843 182.291519,65.258385 
	C181.552902,65.631264 180.820053,66.035606 180.146027,66.513611 
	C159.614487,81.074112 145.557007,100.545105 137.835159,124.316666 
	C129.728622,149.272507 128.288376,174.660324 134.255890,200.489151 
	C140.758789,228.635269 154.504730,252.158997 177.515259,269.671051 
	C201.990509,288.297791 230.133774,295.641724 260.671997,294.778076 
	C278.343964,294.278290 295.214111,290.404938 311.429260,283.504974 
	C332.109558,274.704926 348.712799,260.600525 360.772675,241.982269 
	C376.079498,218.351242 381.998230,191.814224 381.078857,163.690445 
	C380.324249,140.608459 374.170074,119.181847 362.329254,99.343056 
	C352.189240,82.353928 338.452332,69.208817 320.992371,60.002316 
M200.998611,73.247040 
	C209.684677,70.420265 219.007736,69.903946 227.622986,66.580650 
	C226.908081,63.321564 224.766891,62.636307 222.649231,62.488827 
	C213.166473,61.828434 203.763199,62.611004 194.528061,64.849602 
	C190.751068,65.765137 189.800339,68.143959 190.964157,72.054443 
	C192.242355,76.349274 194.543518,75.443336 197.360855,74.240181 
	C198.259003,73.856636 199.271790,73.741524 200.998611,73.247040 
z"/>
<path fill="#000000" opacity="1.000000" stroke="none" 
	d="
M317.350830,442.000061 
	C317.017303,450.631104 317.725952,458.759552 316.817902,466.911072 
	C315.217560,481.277283 296.899780,486.544861 286.007416,478.958038 
	C285.189453,478.388306 284.412445,477.755981 283.644226,477.119171 
	C278.319916,472.705505 278.295624,472.686859 274.848816,478.496765 
	C273.949310,480.012970 272.636414,480.350952 271.061096,480.347076 
	C264.902222,480.331940 258.741943,480.250763 252.585022,480.357605 
	C249.472137,480.411621 248.629364,478.916443 248.633194,476.072876 
	C248.684601,437.953735 248.693771,399.834442 248.642487,361.715332 
	C248.638428,358.695831 249.805313,357.571838 252.775665,357.630188 
	C258.932281,357.751190 265.097748,357.813049 271.250061,357.610504 
	C274.820343,357.492981 275.944885,359.110870 275.921631,362.361298 
	C275.873962,369.018982 275.921356,375.677948 276.002960,382.335480 
	C276.022919,383.962128 275.828949,385.931122 277.614563,386.764740 
	C279.577454,387.681152 280.638550,385.821930 281.741730,384.719696 
	C288.521790,377.945312 296.834412,377.400391 305.387817,379.425171 
	C313.359741,381.312317 317.306244,386.910187 317.332642,395.057770 
	C317.382782,410.538361 317.349304,426.019287 317.350830,442.000061 
M275.958588,437.500000 
	C276.090881,445.146545 276.124023,452.796570 276.391449,460.438385 
	C276.561066,465.284973 279.267487,468.355103 282.967346,468.414185 
	C286.691833,468.473663 289.496063,465.354523 289.646820,460.615448 
	C290.281647,440.662903 290.252563,420.706696 289.664703,400.753876 
	C289.514160,395.643585 286.849396,392.502686 282.964478,392.421112 
	C278.768524,392.333038 276.473602,394.991486 276.370667,400.586517 
	C276.150452,412.556152 276.086273,424.528656 275.958588,437.500000 
z"/>
<path fill="#000000" opacity="1.000000" stroke="none" 
	d="
M450.679932,380.982178 
	C459.347382,386.094330 459.011505,394.749939 459.159546,402.454681 
	C459.629852,426.927612 459.283875,451.415436 459.393921,475.896881 
	C459.410156,479.505646 457.906891,480.480377 454.610840,480.392365 
	C448.619476,480.232391 442.611816,480.139099 436.628510,480.407959 
	C432.518372,480.592621 431.580170,478.795013 431.597198,475.076935 
	C431.706818,451.095062 431.654877,427.112488 431.649414,403.130127 
	C431.648895,400.806549 431.789490,398.477936 430.748383,396.265808 
	C429.455109,393.517914 427.284393,392.229706 424.346222,392.484497 
	C421.486389,392.732483 419.164612,394.045349 418.526093,397.079559 
	C417.843201,400.324646 417.295135,403.579041 417.307343,406.955383 
	C417.388702,429.438538 417.252075,451.922882 417.428253,474.404938 
	C417.462830,478.820038 416.364990,480.777710 411.600677,480.441833 
	C406.297363,480.067993 400.935791,480.127686 395.622192,480.415619 
	C391.250031,480.652496 389.783173,479.014435 389.829987,474.672821 
	C390.007721,458.186859 389.902588,441.697876 389.901611,425.210022 
	C389.900879,412.552673 389.877136,399.895294 389.903961,387.238007 
	C389.917755,380.722260 389.994995,380.675720 396.685181,380.662262 
	C403.327362,380.648895 409.969604,380.659332 416.303497,380.659332 
	C416.811584,381.316711 417.100403,381.541077 417.188019,381.827087 
	C417.926300,384.237640 415.988068,387.877777 419.190308,388.972961 
	C422.458954,390.090759 423.167236,386.151764 424.909088,384.411835 
	C431.309326,378.018768 440.964447,376.557373 450.679932,380.982178 
z"/>
<path fill="#000000" opacity="1.000000" stroke="none" 
	d="
M71.218880,480.300415 
	C67.922806,480.158020 67.727585,478.147125 67.726959,476.045227 
	C67.717880,445.570801 67.738129,415.096313 67.684570,384.621979 
	C67.679108,381.514130 69.139221,380.602356 71.981728,380.644104 
	C78.308350,380.736969 84.639687,380.772186 90.964333,380.625580 
	C94.116745,380.552551 95.635307,381.611725 95.378593,384.922638 
	C95.252365,386.550537 95.101799,388.508545 97.142860,389.145233 
	C99.218529,389.792725 100.088943,387.901093 100.982918,386.622009 
	C106.694672,378.449738 115.026451,377.449554 123.702118,379.045868 
	C130.695877,380.332733 134.968369,385.365967 136.134476,392.422638 
	C136.889679,396.992554 137.227539,401.678253 137.250046,406.314514 
	C137.360031,428.961700 137.176270,451.610962 137.401779,474.256439 
	C137.449844,479.082153 135.989059,480.769806 131.173477,480.434448 
	C125.870041,480.065125 120.505440,480.085541 115.197601,480.417603 
	C110.700287,480.698914 109.542801,478.930878 109.572754,474.652191 
	C109.739449,450.839905 109.642563,427.025879 109.663597,403.212433 
	C109.665672,400.865112 109.587158,398.563629 108.639488,396.365082 
	C107.531357,393.794250 105.529915,392.412781 102.808228,392.463104 
	C99.975266,392.515442 97.594673,393.669128 96.560158,396.561401 
	C95.600937,399.243134 95.310707,402.019836 95.317680,404.890167 
	C95.373924,428.037323 95.216965,451.186066 95.452652,474.330963 
	C95.502647,479.240265 93.912468,480.736664 89.177650,480.441315 
	C83.371140,480.079102 77.526062,480.335327 71.218880,480.300415 
z"/>
<path fill="#000000" opacity="1.000000" stroke="none" 
	d="
M367.349976,434.000122 
	C367.348328,447.996124 367.218994,461.494019 367.421356,474.986938 
	C367.482971,479.095520 366.185669,480.628113 362.017975,480.427582 
	C356.033081,480.139679 350.022797,480.230377 344.027771,480.361786 
	C340.828674,480.431915 339.611938,479.213257 339.617432,475.981323 
	C339.681976,437.992706 339.682617,400.003967 339.617371,362.015350 
	C339.611877,358.812622 340.735870,357.546997 343.979126,357.631256 
	C349.973145,357.786987 355.983307,357.864624 361.969421,357.592987 
	C366.100403,357.405548 367.442474,358.891205 367.416168,363.021484 
	C367.266479,386.513550 367.347321,410.007080 367.349976,434.000122 
z"/>
<path fill="#000000" opacity="1.000000" stroke="none" 
	d="
M205.350433,395.000580 
	C205.341232,399.497223 205.327057,403.495636 205.324158,407.494080 
	C205.322693,409.518188 204.852692,411.012848 202.393295,411.289581 
	C187.103226,413.010193 186.953171,420.132965 186.491348,431.409363 
	C185.919174,445.380890 186.355347,459.393433 186.344971,473.388275 
	C186.339798,480.357574 186.328751,480.365082 179.141022,480.369507 
	C173.976288,480.372681 168.807602,480.226257 163.648209,480.387390 
	C160.259109,480.493195 158.836700,479.226105 158.844116,475.767151 
	C158.908630,445.611847 158.905624,415.456360 158.864151,385.300995 
	C158.859543,381.952148 160.122116,380.525543 163.608307,380.609406 
	C170.897598,380.784729 178.194046,380.662476 185.278900,380.662476 
	C186.552933,383.418854 184.954300,385.477936 185.350784,387.581635 
	C185.722778,389.555359 184.258438,392.459534 187.110291,393.184662 
	C189.496292,393.791382 190.170288,391.097198 191.167847,389.470581 
	C193.196716,386.162292 195.624313,383.244415 198.924850,381.151093 
	C200.590057,380.094940 202.258148,378.929138 204.900040,379.327484 
	C205.809875,384.313354 205.138748,389.434814 205.350433,395.000580 
z"/>
<path fill="#000000" opacity="1.000000" stroke="none" 
	d="
M369.827576,299.901306 
	C371.768616,284.446228 368.044586,268.750580 375.427612,254.440018 
	C376.265778,252.815384 377.011292,251.143066 377.804108,249.494934 
	C378.909149,247.197815 379.449188,245.229370 377.781128,242.602509 
	C375.415619,238.877274 376.132874,234.857361 379.275055,231.647797 
	C385.002747,225.797256 391.952057,221.907150 399.890228,220.058136 
	C406.510437,218.516098 411.294922,222.073624 412.306915,228.873505 
	C412.504608,230.202118 412.503784,231.514923 413.516632,232.566864 
	C419.469849,238.749771 421.861481,246.851273 425.288147,254.400162 
	C426.038391,256.052887 426.809235,257.784027 427.958832,259.153015 
	C433.806824,266.116943 435.545593,274.475494 436.337219,283.161743 
	C436.801422,288.255188 440.397247,292.623901 439.379761,298.110382 
	C438.309570,303.881134 439.162323,309.991821 435.191589,315.193237 
	C433.931976,316.843170 434.146179,319.617706 433.684509,321.877350 
	C432.801361,326.199646 431.963104,330.599335 426.423462,331.277924 
	C418.026062,332.306519 412.439056,330.097595 409.624146,324.579193 
	C408.413330,322.205444 407.414948,319.684662 407.676239,316.936920 
	C408.264496,310.750885 406.808594,304.696411 406.551331,298.560638 
	C406.319305,293.026184 400.972778,290.196136 399.354370,285.282349 
	C398.914551,285.353394 398.474762,285.424469 398.034973,285.495544 
	C397.428589,290.974731 396.745911,296.446869 396.236237,301.935059 
	C395.670044,308.032593 392.289642,312.400970 386.999939,314.571960 
	C382.481476,316.426422 377.538055,316.150208 373.477234,312.404205 
	C369.866913,309.073761 369.981384,304.706573 369.827576,299.901306 
M398.612885,276.695770 
	C400.555786,276.582458 402.111542,277.084808 403.333038,278.821777 
	C406.575348,283.432312 409.161987,288.523041 413.345398,292.457642 
	C414.552032,293.592529 414.627533,295.288086 414.037445,296.675446 
	C412.916290,299.311646 413.686584,301.619080 414.963959,303.798248 
	C416.535156,306.478760 416.656494,309.064484 415.384888,311.877045 
	C413.750122,315.492950 414.958008,318.743683 417.219604,321.598846 
	C418.701355,323.469513 420.823761,324.791901 423.296722,324.371552 
	C425.790344,323.947723 426.192474,321.602997 427.039246,319.559601 
	C428.149353,316.880829 427.151550,313.999054 428.577942,311.313843 
	C431.885712,305.086761 434.337189,298.674530 430.875641,291.504852 
	C429.975128,289.639648 430.023376,287.314453 429.646637,285.198608 
	C428.482574,278.661438 427.764709,271.755920 423.913513,266.314850 
	C420.478851,261.462280 417.977448,256.321564 415.869720,250.918259 
	C413.845154,245.728241 411.141479,241.008987 407.405487,236.911453 
	C405.782043,235.130936 404.470276,233.421173 404.660339,230.788788 
	C404.843811,228.247421 403.481110,226.990021 400.900635,227.732574 
	C395.916748,229.166672 391.081879,231.002289 387.050690,234.383026 
	C385.706512,235.510300 383.838776,236.923859 384.907715,238.965103 
	C388.016968,244.902679 385.780792,250.193710 383.456573,255.614166 
	C379.852325,264.019684 376.515259,272.433350 378.201813,282.007080 
	C378.790680,285.349823 378.876617,288.994446 377.504639,292.367798 
	C376.061768,295.915466 376.216370,299.443237 377.241455,303.103302 
	C377.914703,305.507202 378.504486,307.665314 381.510773,307.738373 
	C384.662079,307.815002 387.440155,306.524414 388.160889,303.520203 
	C389.348999,298.567719 390.368622,293.440765 390.403839,288.380005 
	C390.446808,282.196747 391.585022,279.610931 398.612885,276.695770 
z"/>
<path fill="#000000" opacity="1.000000" stroke="none" 
	d="
M104.859627,301.154083 
	C103.059586,305.243622 104.694550,309.047424 104.408806,312.824219 
	C103.930847,319.141510 99.641174,325.271423 94.449043,326.337646 
	C83.751259,328.534454 79.733261,325.326752 78.800545,313.213074 
	C78.500786,309.319855 77.771065,305.718323 76.225967,302.155060 
	C74.386826,297.913757 74.251373,293.532776 75.527481,289.001831 
	C79.929642,273.371704 85.053810,258.001831 91.749298,243.194138 
	C93.044411,240.329880 94.680290,237.589371 96.418449,234.963547 
	C98.512978,231.799316 100.549080,228.915878 101.120598,224.797516 
	C101.929047,218.971817 108.072838,216.448425 115.706718,218.925461 
	C122.463638,221.117950 129.040451,223.959213 133.511475,230.190887 
	C135.986130,233.639999 136.344299,237.222672 134.257217,240.347549 
	C132.434540,243.076553 132.936996,245.281281 133.748199,247.797470 
	C135.123978,252.064819 136.776184,256.252472 137.958969,260.570374 
	C139.714294,266.978455 140.924591,273.328705 139.556747,280.197601 
	C138.240906,286.805328 140.747391,293.586853 139.582565,300.494781 
	C138.802826,305.118866 137.970428,309.121735 133.553192,311.082611 
	C128.804520,313.190643 123.965126,312.396301 119.833992,309.376251 
	C115.889244,306.492401 113.599747,302.272095 113.766556,297.367340 
	C113.925903,292.681519 111.941833,288.345459 112.953186,282.448883 
	C107.882278,288.601807 104.307762,293.791718 104.859627,301.154083 
M107.074234,277.502411 
	C108.630966,274.747650 110.172775,271.013916 114.061630,273.262634 
	C117.404182,275.195435 120.774902,278.100311 120.258949,282.744385 
	C119.659828,288.137024 121.626343,293.236084 121.573006,298.592987 
	C121.539024,302.005829 124.295555,304.481812 127.862572,304.470398 
	C131.341125,304.459290 132.630844,301.700500 132.607513,298.578796 
	C132.490173,282.870575 134.610352,266.943085 127.309708,251.978668 
	C125.262535,247.782516 124.297371,242.683578 126.182938,238.381378 
	C127.976624,234.288879 126.227837,232.475952 123.564583,230.573822 
	C120.280159,228.228104 116.485985,226.926483 112.653206,225.757446 
	C110.856606,225.209457 108.461571,225.448395 108.692360,227.290039 
	C109.414574,233.053146 104.679970,235.717239 102.424759,239.736084 
	C95.073395,252.836349 90.540390,267.091888 85.391808,281.083771 
	C83.921532,285.079376 82.492355,289.493835 82.724014,293.621979 
	C83.120224,300.682587 84.710716,307.693939 86.049095,314.678192 
	C87.084831,320.083130 90.691742,321.145416 94.739708,317.363525 
	C97.080383,315.176727 97.880920,312.312927 97.548492,309.168549 
	C96.462097,298.892487 96.670807,288.971008 104.704514,280.998688 
	C105.513878,280.195526 106.011986,279.078705 107.074234,277.502411 
z"/>
<path fill="#000000" opacity="1.000000" stroke="none" 
	d="
M225.705338,458.819641 
	C228.532364,459.025482 229.178116,460.601990 229.185410,462.625397 
	C229.202164,467.268036 229.144455,471.911163 229.187561,476.553436 
	C229.213043,479.296509 227.913666,480.416840 225.220078,480.356201 
	C221.242264,480.266693 217.260590,480.284485 213.281586,480.335541 
	C210.803146,480.367371 209.634003,479.307678 209.667435,476.770538 
	C209.730804,471.962616 209.724091,467.152863 209.671021,462.344727 
	C209.643158,459.819061 210.826447,458.736237 213.298035,458.766724 
	C217.277206,458.815857 221.257339,458.788361 225.705338,458.819641 
z"/>
<path fill="#000000" opacity="1.000000" stroke="none" 
	d="
M255.563309,156.406540 
	C254.387360,154.617630 253.431564,153.099884 252.351196,151.384323 
	C239.770096,169.868393 222.263214,175.562454 201.290253,171.306976 
	C189.996887,169.015533 183.078552,160.751404 177.989365,151.026245 
	C176.562347,148.299316 175.053986,145.528091 174.323700,142.348953 
	C171.817444,131.438385 177.571732,120.919373 188.348022,117.643387 
	C200.889664,113.830757 213.704086,115.173332 226.436539,116.111130 
	C231.533066,116.486511 236.578125,117.707596 241.614334,118.706467 
	C245.348480,119.447090 249.167297,120.116119 251.911469,123.298599 
	C258.749298,117.415108 267.257385,117.247757 275.088379,115.959297 
	C288.239227,113.795540 301.592529,114.007988 314.785034,116.658745 
	C324.749298,118.660858 330.834412,124.843224 333.834290,134.320389 
	C334.176575,135.401733 334.469025,136.691238 334.209137,137.741867 
	C330.526367,152.630325 319.532745,169.999237 302.055695,172.123764 
	C284.349548,174.276169 268.212158,170.790985 255.563309,156.406540 
M267.649323,130.792282 
	C267.754059,128.846603 267.858765,126.900909 267.987640,124.506821 
	C264.047974,125.205376 259.892487,124.780396 258.032288,129.009216 
	C256.413086,132.690109 256.014496,136.614929 256.634766,140.712143 
	C259.252747,158.004181 279.277679,167.090439 295.151184,166.125778 
	C310.321167,165.203827 319.654114,156.437088 325.184814,142.820358 
	C327.705139,136.615265 326.344910,130.617416 320.966095,127.060051 
	C314.069824,122.499077 306.163788,122.202812 297.653503,121.459991 
	C301.917969,129.388382 302.795288,136.700928 297.300018,143.509506 
	C292.240936,149.777664 284.869049,151.643600 277.561310,148.962936 
	C271.149933,146.611084 267.660217,140.527344 267.649323,130.792282 
M206.181671,165.526657 
	C212.012833,166.331192 217.815048,166.095490 223.483734,164.551788 
	C235.332672,161.325089 248.740601,151.733749 247.763687,136.977539 
	C247.143677,127.612373 245.495773,125.448196 235.650085,125.208893 
	C238.809753,134.946777 236.807846,143.053452 227.630966,148.310272 
	C221.861649,151.615128 213.330307,150.334503 208.697296,145.570343 
	C205.659332,142.446350 203.569687,138.796295 203.567398,134.059509 
	C203.565308,129.725052 203.927338,125.628578 206.839432,121.860519 
	C200.347504,122.299652 194.385086,122.485870 188.828568,125.068420 
	C183.995590,127.314674 179.416977,133.739334 180.564545,138.112000 
	C183.361618,148.770020 190.224701,162.040726 206.181671,165.526657 
M280.096466,142.495346 
	C285.433197,144.388550 290.902954,142.207489 293.376892,137.199844 
	C295.533844,132.833725 293.774231,127.286766 289.269867,124.253105 
	C284.762787,121.217613 279.588318,121.977081 275.932373,126.210716 
	C271.497375,131.346451 272.925262,137.825165 280.096466,142.495346 
M225.885727,141.463699 
	C231.469833,136.737534 232.004181,132.194046 227.661652,126.363342 
	C224.349167,121.915672 219.273453,121.160851 214.453369,124.399132 
	C209.667953,127.614120 208.497040,133.334763 211.600693,138.336105 
	C214.749771,143.410645 219.776276,144.683212 225.885727,141.463699 
z"/>
<path fill="#000000" opacity="1.000000" stroke="none" 
	d="
M352.848816,208.641144 
	C348.769806,211.392746 345.304901,209.542267 341.790894,208.025345 
	C338.486084,206.598740 335.492950,204.977615 331.388794,205.898270 
	C317.164886,209.089020 302.848358,211.888596 288.517944,214.574936 
	C278.689514,216.417358 268.682526,216.080231 258.728058,216.469528 
	C236.637726,217.333435 214.987854,215.095993 193.728561,208.880325 
	C188.187164,207.260162 182.398819,206.460159 176.700760,205.408737 
	C172.676163,204.666077 168.815994,205.423035 164.993393,206.864746 
	C163.190826,207.544556 160.829956,208.116440 159.957687,205.453217 
	C159.224045,203.213242 159.923798,201.459290 162.191696,200.039322 
	C167.736404,196.567734 173.387360,196.379547 179.776321,197.336502 
	C197.169708,199.941727 213.874756,205.649857 231.281052,208.142044 
	C242.858994,209.799744 254.446457,209.929733 265.962555,208.511887 
	C278.277222,206.995712 290.830261,207.251343 302.879028,203.575760 
	C311.594788,200.916931 320.547791,199.164795 329.411682,197.074814 
	C338.602997,194.907639 344.851135,200.584778 352.086578,203.768799 
	C353.931580,204.580704 353.271637,206.642593 352.848816,208.641144 
z"/>
<path fill="#000000" opacity="1.000000" stroke="none" 
	d="
M320.976349,59.990105 
	C325.003784,66.252892 323.246613,72.565094 320.370941,78.425926 
	C318.158905,82.934158 313.113434,82.122795 309.645874,80.898933 
	C299.399536,77.282562 288.591858,76.369331 278.193054,73.569382 
	C274.423492,72.554390 271.657043,71.677086 271.610199,67.089851 
	C271.547516,60.952198 273.131195,58.185009 277.956696,56.693821 
	C281.529572,55.589718 285.195068,55.500130 288.821411,55.797318 
	C299.354156,56.660503 310.043610,56.380833 320.637634,59.909775 
	C321.019470,60.032009 320.992371,60.002316 320.976349,59.990105 
M313.937622,64.427620 
	C303.677338,62.269287 293.339630,61.269142 282.859558,62.308170 
	C280.982971,62.494225 278.867889,62.675163 278.615845,64.926842 
	C278.321716,67.554749 280.595825,67.347397 282.399841,67.715164 
	C291.327911,69.535240 300.225494,71.504677 309.151123,73.337105 
	C311.201202,73.757980 313.703186,76.322174 315.287964,73.206909 
	C316.658447,70.512856 318.148743,67.272827 313.937622,64.427620 
z"/>
</svg>