<svg version="1.1" id="Layer_1" xmlns="http://www.w3.org/2000/svg" xmlns:xlink="http://www.w3.org/1999/xlink" x="0px" y="0px"
	 width="100%" viewBox="0 0 512 512" enable-background="new 0 0 512 512" xml:space="preserve">
<path fill="#000000" opacity="1.000000" stroke="none" 
	d="
M1.000000,183.000000 
	C1.000000,122.000000 1.000000,61.500000 1.000000,1.000000 
	C171.666672,1.000000 342.333344,1.000000 513.000000,1.000000 
	C513.000000,171.666672 513.000000,342.333344 513.000000,513.000000 
	C342.333344,513.000000 171.666672,513.000000 1.000000,513.000000 
	C1.000000,403.166656 1.000000,293.333344 1.000000,183.000000 
M386.194550,191.870651 
	C386.799622,187.992752 388.008453,184.097549 387.898010,180.240143 
	C387.548401,168.030975 387.452820,155.740723 385.912903,143.653320 
	C381.344177,107.791306 362.834320,80.233032 333.997772,59.086739 
	C313.606934,44.133808 290.045258,37.938053 265.560944,36.309223 
	C239.965775,34.606487 214.905731,38.727718 191.771378,50.876415 
	C174.704559,59.838825 160.147812,71.786453 148.696564,87.432465 
	C134.657883,106.613747 126.739845,127.916031 124.773834,151.678864 
	C122.968422,173.500534 124.359261,194.821503 130.985001,215.797623 
	C140.387817,245.565613 159.907562,267.435974 185.572906,283.700623 
	C206.289139,296.828918 230.095383,301.196777 254.334366,301.854828 
	C269.227142,302.259125 284.228394,300.832214 298.384064,295.844818 
	C309.290985,292.002045 320.444977,287.911743 330.132294,281.785919 
	C343.542053,273.306183 354.953918,262.109009 364.516083,249.181213 
	C376.975342,232.336655 382.919525,213.097549 386.194550,191.870651 
M275.209198,369.504517 
	C275.209198,365.743256 275.209198,361.981964 275.209198,358.144897 
	C266.248657,358.144897 257.831360,358.144897 249.302032,358.144897 
	C249.302032,398.830658 249.302032,439.325226 249.302032,480.002747 
	C255.915314,480.002747 262.225830,479.916718 268.532410,480.036652 
	C272.022308,480.102997 275.217834,480.376007 275.250122,475.320496 
	C275.257965,474.096100 276.975647,472.882690 278.132019,471.369965 
	C280.078949,473.226379 281.486328,474.597412 282.924744,475.934967 
	C289.608582,482.150269 297.306671,483.807587 305.787506,480.479980 
	C313.948059,477.278076 316.853180,470.381500 316.916290,462.288116 
	C317.094086,439.482941 317.050751,416.675293 316.950134,393.869232 
	C316.922607,387.623535 312.666321,381.747406 306.704193,380.124023 
	C297.700928,377.672516 289.062256,377.966553 281.885010,385.228424 
	C280.740997,386.385925 278.932770,386.886932 277.431641,387.691467 
	C276.692505,385.955170 275.460388,384.259125 275.314758,382.474396 
	C274.990875,378.505402 275.210876,374.491974 275.209198,369.504517 
M68.209976,431.499878 
	C68.209976,447.591400 68.209976,463.682922 68.209976,479.800232 
	C77.436035,479.800232 86.033836,479.800232 95.003731,479.800232 
	C95.003731,472.145599 95.003937,464.690979 95.003693,457.236328 
	C95.003113,439.579346 94.997658,421.922363 95.009270,404.265381 
	C95.010368,402.603210 94.885765,400.892792 95.219116,399.287781 
	C96.363716,393.776733 98.882004,391.643646 103.473701,392.009186 
	C107.670586,392.343262 109.965012,395.326263 109.975548,400.940613 
	C110.021797,425.593658 109.995155,450.246857 109.994949,474.899994 
	C109.994942,476.507080 109.994957,478.114166 109.994957,479.666260 
	C119.218559,479.666260 127.934601,479.666260 136.858444,479.666260 
	C136.858444,470.018433 136.948807,460.708313 136.839432,451.400513 
	C136.618439,432.593323 136.328659,413.786621 135.984955,394.981262 
	C135.845657,387.360291 131.243378,380.944214 123.904449,379.464966 
	C115.034027,377.677032 106.792534,378.939514 101.031296,387.223724 
	C100.148071,388.493713 98.219810,389.036987 96.774879,389.916351 
	C96.183983,388.355347 95.423752,386.832794 95.057350,385.220764 
	C94.779160,383.996857 95.002174,382.658997 95.002174,381.303558 
	C85.938683,381.303558 77.220497,381.303558 68.209984,381.303558 
	C68.209984,397.906372 68.209984,414.203094 68.209976,431.499878 
M441.532562,480.002106 
	C447.293030,480.002106 453.053467,480.002106 458.061584,480.002106 
	C458.061584,451.794891 458.012390,424.189728 458.091919,396.584930 
	C458.115417,388.426910 454.991302,382.322296 446.990204,379.917328 
	C439.174255,377.567993 431.686188,378.370209 425.441528,384.494965 
	C423.440857,386.457184 421.136536,388.109833 418.971130,389.904144 
	C418.047638,387.139313 417.124146,384.374481 416.114227,381.350952 
	C408.166931,381.350952 399.456329,381.350952 390.796387,381.350952 
	C390.796387,414.317017 390.796387,446.931854 390.796387,479.774109 
	C399.521240,479.774109 408.089478,479.774109 417.000580,479.774109 
	C417.000580,477.926361 417.000580,476.298126 417.000580,474.669891 
	C417.000458,451.679932 416.957001,428.689789 417.051208,405.700226 
	C417.063995,402.575500 417.117615,399.156769 418.366486,396.430328 
	C419.261536,394.476410 422.158905,392.351227 424.207031,392.306122 
	C426.461212,392.256500 429.277283,394.054382 430.879181,395.892303 
	C432.059998,397.247101 431.954651,399.958130 431.960266,402.066101 
	C432.025269,426.388580 432.001923,450.711304 432.002075,475.033966 
	C432.002075,476.627777 432.002075,478.221619 432.002075,480.002106 
	C435.249054,480.002106 437.896332,480.002106 441.532562,480.002106 
M339.968964,420.500000 
	C339.968964,440.241577 339.968964,459.983124 339.968964,479.759033 
	C349.226715,479.759033 357.958954,479.759033 366.652161,479.759033 
	C366.652161,439.024963 366.652161,398.534424 366.652161,358.287476 
	C357.565765,358.287476 348.827545,358.287476 339.968964,358.287476 
	C339.968964,378.912964 339.968964,399.206482 339.968964,420.500000 
M204.999496,405.278046 
	C204.999496,396.638794 204.999496,387.999573 204.999496,378.606110 
	C202.398178,379.989807 199.880707,380.705536 198.268768,382.323456 
	C195.407883,385.194977 193.209106,388.714752 190.494003,391.749176 
	C189.539993,392.815369 187.883072,393.252594 186.547134,393.977020 
	C186.030930,392.729187 185.111435,391.491577 185.079422,390.231445 
	C185.004379,387.277527 185.354309,384.312805 185.540466,381.215057 
	C177.167755,381.215057 168.561859,381.215057 159.824951,381.215057 
	C159.824951,414.163513 159.824951,446.896362 159.824951,479.738495 
	C168.604309,479.738495 177.171585,479.738495 186.002182,479.738495 
	C186.002182,477.843903 186.002197,476.202820 186.002167,474.561768 
	C186.001953,459.730682 185.739166,444.893372 186.089813,430.070587 
	C186.341888,419.414673 187.924805,412.058929 202.216583,410.924927 
	C205.573685,410.658539 204.990891,408.326904 204.999496,405.278046 
M433.154968,321.680786 
	C434.559418,318.088104 435.977905,314.500793 437.356934,310.898438 
	C437.646698,310.141479 437.817688,309.335083 437.999359,308.541351 
	C440.704590,296.722992 436.868988,285.587250 434.270294,274.359589 
	C433.358582,270.420563 431.990479,266.503204 430.233551,262.864288 
	C427.826172,257.878143 424.845673,253.169037 422.117950,248.337128 
	C419.467560,243.642288 416.795776,238.959091 414.198547,234.234955 
	C413.363251,232.715607 412.309906,231.139893 412.086884,229.491119 
	C411.188110,222.847382 407.538696,219.444733 400.996704,220.479507 
	C392.093262,221.887787 384.460938,226.202286 378.817261,233.186600 
	C377.246124,235.130936 376.326111,240.013626 377.534119,241.342865 
	C381.282379,245.467285 378.727051,248.368912 377.115082,251.783478 
	C373.283936,259.898834 370.350861,268.214264 370.940552,277.440857 
	C371.209076,281.642303 370.934174,285.877228 370.941132,290.096924 
	C370.951111,296.149689 370.822479,302.211700 371.151245,308.248077 
	C371.226379,309.627899 372.764709,311.082153 373.909302,312.221069 
	C377.519440,315.813263 382.321716,316.002319 386.465607,314.541718 
	C391.233063,312.861328 394.778076,308.922943 395.574280,303.606384 
	C396.403992,298.066284 396.614807,292.435150 397.186279,286.853027 
	C397.281189,285.926025 397.836060,285.046143 398.652130,282.896606 
	C401.817841,288.838043 405.466797,293.413361 406.690735,298.564819 
	C408.186676,304.860992 407.608398,311.642853 408.001556,318.210205 
	C408.381622,324.559204 413.654236,330.652557 418.976959,331.014069 
	C429.463837,331.726288 431.254761,330.647797 433.154968,321.680786 
M104.150414,301.448364 
	C104.388397,293.908875 107.228035,287.530975 112.781532,282.206696 
	C113.219612,286.868805 114.035187,291.432434 113.975876,295.984711 
	C113.905663,301.374298 115.872932,305.651489 119.821999,308.928345 
	C123.863007,312.281494 129.093903,312.502686 133.391022,310.572632 
	C135.958008,309.419678 138.546967,305.447876 138.803711,302.538239 
	C139.695938,292.427032 139.590500,282.226624 139.812881,272.059052 
	C139.837723,270.923248 139.670822,269.740631 139.357956,268.646912 
	C137.201584,261.108398 134.909805,253.607635 132.850250,246.043350 
	C132.472977,244.657684 132.378830,242.582855 133.146210,241.604019 
	C136.399521,237.454346 135.443954,233.922089 132.678085,229.995804 
	C128.323654,223.814438 121.696953,221.124298 115.096107,219.215225 
	C105.861778,216.544495 102.842903,219.115952 100.971054,228.870010 
	C100.797394,229.774933 100.119171,230.587585 99.653786,231.431259 
	C96.176460,237.735062 91.976082,243.754074 89.367027,250.398254 
	C84.438225,262.949860 80.213821,275.794617 76.174423,288.667450 
	C75.147255,291.940857 75.429703,295.851532 75.961555,299.339569 
	C76.988556,306.075012 78.341095,312.795258 80.149269,319.359131 
	C80.821335,321.798828 82.766556,325.186707 84.786484,325.737000 
	C94.911835,328.495697 103.051712,323.661560 103.960220,312.728516 
	C104.247536,309.270935 103.969086,305.766327 104.150414,301.448364 
M228.661011,472.408936 
	C228.661011,468.146790 228.661011,463.884644 228.661011,459.563599 
	C222.080414,459.563599 216.179703,459.563599 210.177704,459.563599 
	C210.177704,466.438812 210.177704,473.023895 210.177704,479.659973 
	C216.391266,479.659973 222.402893,479.659973 228.660980,479.659973 
	C228.660980,477.327667 228.660980,475.349548 228.661011,472.408936 
z"/>
<path fill="#F9F9F9" opacity="1.000000" stroke="none" 
	d="
M386.143066,192.311295 
	C382.919525,213.097549 376.975342,232.336655 364.516083,249.181213 
	C354.953918,262.109009 343.542053,273.306183 330.132294,281.785919 
	C320.444977,287.911743 309.290985,292.002045 298.384064,295.844818 
	C284.228394,300.832214 269.227142,302.259125 254.334366,301.854828 
	C230.095383,301.196777 206.289139,296.828918 185.572906,283.700623 
	C159.907562,267.435974 140.387817,245.565613 130.985001,215.797623 
	C124.359261,194.821503 122.968422,173.500534 124.773834,151.678864 
	C126.739845,127.916031 134.657883,106.613747 148.696564,87.432465 
	C160.147812,71.786453 174.704559,59.838825 191.771378,50.876415 
	C214.905731,38.727718 239.965775,34.606487 265.560944,36.309223 
	C290.045258,37.938053 313.606934,44.133808 333.997772,59.086739 
	C362.834320,80.233032 381.344177,107.791306 385.912903,143.653320 
	C387.452820,155.740723 387.548401,168.030975 387.898010,180.240143 
	C388.008453,184.097549 386.799622,187.992752 386.143066,192.311295 
M190.898727,59.718800 
	C202.113754,58.806854 213.319275,57.739780 224.547958,57.050312 
	C229.929001,56.719902 233.656509,59.897999 234.010178,64.270775 
	C234.572235,71.220367 233.633011,72.306892 226.639572,73.979561 
	C216.451004,76.416420 206.282654,78.946281 196.150803,81.608177 
	C191.021866,82.955666 187.594147,81.831795 186.151306,76.720741 
	C184.936783,72.418434 184.978149,67.761589 184.400330,62.708797 
	C179.953552,66.136932 175.527237,69.227394 171.461365,72.735596 
	C143.508286,96.854721 132.052887,128.652222 130.165237,164.359299 
	C129.037689,185.687912 133.634857,206.293060 142.284729,225.862839 
	C153.535706,251.317368 171.991501,269.984131 196.924271,282.037750 
	C217.249115,291.863678 238.822067,296.816742 261.474121,295.058380 
	C272.100830,294.233521 282.820160,292.836975 293.144745,290.276764 
	C311.050873,285.836639 326.907898,277.309052 341.056458,265.070740 
	C359.182709,249.391769 370.681610,229.773483 376.688782,207.148483 
	C381.167542,190.280060 383.269714,172.898178 381.123566,155.167709 
	C379.063690,138.149963 374.781982,121.923592 367.003265,106.679893 
	C357.589752,88.232460 344.051758,73.436836 326.586823,62.313740 
	C324.638184,61.072701 322.126190,60.716236 319.976593,60.031437 
	C319.976593,60.031437 320.059540,60.131718 320.674988,59.533260 
	C318.527405,58.090176 316.542877,56.264851 314.205139,55.267414 
	C301.206146,49.721191 287.893799,45.634003 273.729889,43.616192 
	C260.050690,41.667427 246.574066,42.156136 233.245956,44.279182 
	C218.359039,46.650528 204.027725,51.512196 190.258331,59.232006 
	C190.523163,59.378582 190.787979,59.525158 191.052811,59.671734 
	C190.870499,59.347195 190.688187,59.022659 190.898727,59.718800 
M223.043396,68.853050 
	C225.026825,68.189438 227.010254,67.525818 228.993668,66.862206 
	C229.140869,66.315704 229.288055,65.769203 229.435242,65.222702 
	C226.977036,64.147614 224.592041,62.430092 222.044388,62.139732 
	C217.614609,61.634857 213.050476,61.668152 208.605103,62.107571 
	C203.399414,62.622139 198.173950,63.480728 193.116745,64.801483 
	C187.971436,66.145256 190.241776,69.958046 190.935715,73.233490 
	C191.789963,77.265732 193.995132,75.698700 196.459778,75.072762 
	C205.013428,72.900345 213.635544,70.997559 223.043396,68.853050 
z"/>
<path fill="#FEFEFE" opacity="1.000000" stroke="none" 
	d="
M275.209198,370.000610 
	C275.210876,374.491974 274.990875,378.505402 275.314758,382.474396 
	C275.460388,384.259125 276.692505,385.955170 277.431641,387.691467 
	C278.932770,386.886932 280.740997,386.385925 281.885010,385.228424 
	C289.062256,377.966553 297.700928,377.672516 306.704193,380.124023 
	C312.666321,381.747406 316.922607,387.623535 316.950134,393.869232 
	C317.050751,416.675293 317.094086,439.482941 316.916290,462.288116 
	C316.853180,470.381500 313.948059,477.278076 305.787506,480.479980 
	C297.306671,483.807587 289.608582,482.150269 282.924744,475.934967 
	C281.486328,474.597412 280.078949,473.226379 278.132019,471.369965 
	C276.975647,472.882690 275.257965,474.096100 275.250122,475.320496 
	C275.217834,480.376007 272.022308,480.102997 268.532410,480.036652 
	C262.225830,479.916718 255.915314,480.002747 249.302032,480.002747 
	C249.302032,439.325226 249.302032,398.830658 249.302032,358.144897 
	C257.831360,358.144897 266.248657,358.144897 275.209198,358.144897 
	C275.209198,361.981964 275.209198,365.743256 275.209198,370.000610 
M275.187256,442.494751 
	C275.454834,448.957947 275.647827,455.425354 276.016266,461.882812 
	C276.260773,466.168396 278.943207,468.782043 282.974396,468.818298 
	C286.993347,468.854431 289.950928,466.378265 289.972198,462.018402 
	C290.074310,441.100800 290.114014,420.181671 289.949890,399.264862 
	C289.912231,394.462921 286.666687,391.717621 282.383606,392.003723 
	C277.633911,392.320984 276.013306,395.214813 275.954834,399.660736 
	C275.771362,413.607025 275.453217,427.551544 275.187256,442.494751 
z"/>
<path fill="#FCFCFC" opacity="1.000000" stroke="none" 
	d="
M68.209976,430.999847 
	C68.209984,414.203094 68.209984,397.906372 68.209984,381.303558 
	C77.220497,381.303558 85.938683,381.303558 95.002174,381.303558 
	C95.002174,382.658997 94.779160,383.996857 95.057350,385.220764 
	C95.423752,386.832794 96.183983,388.355347 96.774879,389.916351 
	C98.219810,389.036987 100.148071,388.493713 101.031296,387.223724 
	C106.792534,378.939514 115.034027,377.677032 123.904449,379.464966 
	C131.243378,380.944214 135.845657,387.360291 135.984955,394.981262 
	C136.328659,413.786621 136.618439,432.593323 136.839432,451.400513 
	C136.948807,460.708313 136.858444,470.018433 136.858444,479.666260 
	C127.934601,479.666260 119.218559,479.666260 109.994957,479.666260 
	C109.994957,478.114166 109.994942,476.507080 109.994949,474.899994 
	C109.995155,450.246857 110.021797,425.593658 109.975548,400.940613 
	C109.965012,395.326263 107.670586,392.343262 103.473701,392.009186 
	C98.882004,391.643646 96.363716,393.776733 95.219116,399.287781 
	C94.885765,400.892792 95.010368,402.603210 95.009270,404.265381 
	C94.997658,421.922363 95.003113,439.579346 95.003693,457.236328 
	C95.003937,464.690979 95.003731,472.145599 95.003731,479.800232 
	C86.033836,479.800232 77.436035,479.800232 68.209976,479.800232 
	C68.209976,463.682922 68.209976,447.591400 68.209976,430.999847 
z"/>
<path fill="#FFFFFF" opacity="1.000000" stroke="none" 
	d="
M441.038086,480.002106 
	C437.896332,480.002106 435.249054,480.002106 432.002075,480.002106 
	C432.002075,478.221619 432.002075,476.627777 432.002075,475.033966 
	C432.001923,450.711304 432.025269,426.388580 431.960266,402.066101 
	C431.954651,399.958130 432.059998,397.247101 430.879181,395.892303 
	C429.277283,394.054382 426.461212,392.256500 424.207031,392.306122 
	C422.158905,392.351227 419.261536,394.476410 418.366486,396.430328 
	C417.117615,399.156769 417.063995,402.575500 417.051208,405.700226 
	C416.957001,428.689789 417.000458,451.679932 417.000580,474.669891 
	C417.000580,476.298126 417.000580,477.926361 417.000580,479.774109 
	C408.089478,479.774109 399.521240,479.774109 390.796387,479.774109 
	C390.796387,446.931854 390.796387,414.317017 390.796387,381.350952 
	C399.456329,381.350952 408.166931,381.350952 416.114227,381.350952 
	C417.124146,384.374481 418.047638,387.139313 418.971130,389.904114 
	C421.136536,388.109833 423.440857,386.457184 425.441528,384.494965 
	C431.686188,378.370209 439.174255,377.567993 446.990204,379.917328 
	C454.991302,382.322296 458.115417,388.426910 458.091919,396.584930 
	C458.012390,424.189728 458.061584,451.794891 458.061584,480.002106 
	C453.053467,480.002106 447.293030,480.002106 441.038086,480.002106 
z"/>
<path fill="#FFFFFF" opacity="1.000000" stroke="none" 
	d="
M339.968964,420.000000 
	C339.968964,399.206482 339.968964,378.912964 339.968964,358.287476 
	C348.827545,358.287476 357.565765,358.287476 366.652161,358.287476 
	C366.652161,398.534424 366.652161,439.024963 366.652161,479.759033 
	C357.958954,479.759033 349.226715,479.759033 339.968964,479.759033 
	C339.968964,459.983124 339.968964,440.241577 339.968964,420.000000 
z"/>
<path fill="#FFFFFF" opacity="1.000000" stroke="none" 
	d="
M204.999435,405.748596 
	C204.990891,408.326904 205.573685,410.658539 202.216583,410.924927 
	C187.924805,412.058929 186.341888,419.414673 186.089813,430.070587 
	C185.739166,444.893372 186.001953,459.730682 186.002167,474.561768 
	C186.002197,476.202820 186.002182,477.843903 186.002182,479.738495 
	C177.171585,479.738495 168.604309,479.738495 159.824951,479.738495 
	C159.824951,446.896362 159.824951,414.163513 159.824951,381.215057 
	C168.561859,381.215057 177.167755,381.215057 185.540466,381.215057 
	C185.354309,384.312805 185.004379,387.277527 185.079422,390.231445 
	C185.111435,391.491577 186.030930,392.729187 186.547134,393.977051 
	C187.883072,393.252594 189.539993,392.815369 190.494003,391.749176 
	C193.209106,388.714752 195.407883,385.194977 198.268768,382.323456 
	C199.880707,380.705536 202.398178,379.989807 204.999496,378.606110 
	C204.999496,387.999573 204.999496,396.638794 204.999435,405.748596 
z"/>
<path fill="#F8F8F8" opacity="1.000000" stroke="none" 
	d="
M433.129761,322.093750 
	C431.254761,330.647797 429.463837,331.726288 418.976959,331.014069 
	C413.654236,330.652557 408.381622,324.559204 408.001556,318.210205 
	C407.608398,311.642853 408.186676,304.860992 406.690735,298.564819 
	C405.466797,293.413361 401.817841,288.838043 398.652130,282.896606 
	C397.836060,285.046143 397.281189,285.926025 397.186279,286.853027 
	C396.614807,292.435150 396.403992,298.066284 395.574280,303.606384 
	C394.778076,308.922943 391.233063,312.861328 386.465607,314.541718 
	C382.321716,316.002319 377.519440,315.813263 373.909302,312.221069 
	C372.764709,311.082153 371.226379,309.627899 371.151245,308.248077 
	C370.822479,302.211700 370.951111,296.149689 370.941132,290.096924 
	C370.934174,285.877228 371.209076,281.642303 370.940552,277.440857 
	C370.350861,268.214264 373.283936,259.898834 377.115082,251.783478 
	C378.727051,248.368912 381.282379,245.467285 377.534119,241.342865 
	C376.326111,240.013626 377.246124,235.130936 378.817261,233.186600 
	C384.460938,226.202286 392.093262,221.887787 400.996704,220.479507 
	C407.538696,219.444733 411.188110,222.847382 412.086884,229.491119 
	C412.309906,231.139893 413.363251,232.715607 414.198547,234.234955 
	C416.795776,238.959091 419.467560,243.642288 422.117950,248.337128 
	C424.845673,253.169037 427.826172,257.878143 430.233551,262.864288 
	C431.990479,266.503204 433.358582,270.420563 434.270294,274.359589 
	C436.868988,285.587250 440.704590,296.722992 437.999359,308.541351 
	C437.817688,309.335083 437.646698,310.141479 437.356934,310.898438 
	C435.977905,314.500793 434.559418,318.088104 433.129761,322.093750 
M405.651306,234.264847 
	C405.521759,233.010483 405.176392,231.733368 405.305634,230.506256 
	C405.617493,227.545166 404.022797,226.394165 401.583130,227.110458 
	C394.625031,229.153336 387.662476,231.360672 383.156189,238.198608 
	C387.386444,241.774689 386.334534,246.154800 385.035889,250.478668 
	C384.426086,252.509003 383.394318,254.409851 382.600433,256.388092 
	C379.287750,264.642731 375.992279,272.816528 377.750671,282.139496 
	C378.338684,285.257019 377.308990,288.662537 377.150055,291.942749 
	C376.978760,295.478241 376.907471,299.020966 376.893097,302.560944 
	C376.880524,305.654724 377.772430,308.509064 381.420807,308.436951 
	C385.114380,308.363861 388.454987,306.538116 389.059875,302.646271 
	C389.904602,297.211639 389.321533,291.499878 390.597839,286.207794 
	C391.395508,282.900360 393.945160,279.405365 396.717651,277.366791 
	C399.179962,275.556305 402.054413,277.300232 403.961121,280.299438 
	C406.677826,284.572693 410.065521,288.414215 412.940216,292.595795 
	C413.665741,293.651184 413.625671,295.287598 413.771545,296.674469 
	C414.015106,298.989929 414.139587,301.318512 414.287354,303.643280 
	C414.463013,306.406006 415.278656,309.341705 414.624329,311.897034 
	C413.433350,316.548004 414.807343,320.225281 417.989655,323.101379 
	C421.970276,326.698975 425.689850,325.409180 427.096741,320.220093 
	C427.819183,317.555573 427.384460,314.371765 428.672882,312.104706 
	C432.603271,305.188843 433.353943,298.654633 431.306213,290.616119 
	C428.472626,279.492798 427.069733,268.087433 419.593994,258.740204 
	C419.204773,258.253571 419.206940,257.472992 418.883911,256.911469 
	C414.654633,249.559464 410.399536,242.222305 405.651306,234.264847 
z"/>
<path fill="#FAFAFA" opacity="1.000000" stroke="none" 
	d="
M104.049988,301.865814 
	C103.969086,305.766327 104.247536,309.270935 103.960220,312.728516 
	C103.051712,323.661560 94.911835,328.495697 84.786484,325.737000 
	C82.766556,325.186707 80.821335,321.798828 80.149269,319.359131 
	C78.341095,312.795258 76.988556,306.075012 75.961555,299.339569 
	C75.429703,295.851532 75.147255,291.940857 76.174423,288.667450 
	C80.213821,275.794617 84.438225,262.949860 89.367027,250.398254 
	C91.976082,243.754074 96.176460,237.735062 99.653786,231.431259 
	C100.119171,230.587585 100.797394,229.774933 100.971054,228.870010 
	C102.842903,219.115952 105.861778,216.544495 115.096107,219.215225 
	C121.696953,221.124298 128.323654,223.814438 132.678085,229.995804 
	C135.443954,233.922089 136.399521,237.454346 133.146210,241.604019 
	C132.378830,242.582855 132.472977,244.657684 132.850250,246.043350 
	C134.909805,253.607635 137.201584,261.108398 139.357956,268.646912 
	C139.670822,269.740631 139.837723,270.923248 139.812881,272.059052 
	C139.590500,282.226624 139.695938,292.427032 138.803711,302.538239 
	C138.546967,305.447876 135.958008,309.419678 133.391022,310.572632 
	C129.093903,312.502686 123.863007,312.281494 119.821999,308.928345 
	C115.872932,305.651489 113.905663,301.374298 113.975876,295.984711 
	C114.035187,291.432434 113.219612,286.868805 112.781532,282.206696 
	C107.228035,287.530975 104.388397,293.908875 104.049988,301.865814 
M111.587524,272.995178 
	C116.382118,273.875244 119.149292,277.228271 119.864105,281.547150 
	C120.784332,287.107147 120.507835,292.854156 121.057144,298.490356 
	C121.439568,302.414246 123.952652,304.863770 127.902481,304.916779 
	C131.924316,304.970764 133.032303,302.092651 133.015640,298.547791 
	C132.986298,292.305389 132.992905,286.062714 133.007980,279.820221 
	C133.015457,276.723175 133.694061,273.477203 132.990875,270.558319 
	C131.160065,262.958710 128.453568,255.567917 126.678329,247.958069 
	C125.939156,244.789536 126.672455,241.276077 126.747345,237.919708 
	C126.781227,236.401566 127.474724,234.456680 126.785881,233.437271 
	C123.008728,227.847336 116.880722,226.289520 110.737411,225.185135 
	C110.047081,225.061050 108.718536,227.250992 108.044006,228.553329 
	C106.920280,230.722916 106.251999,233.133163 105.082184,235.272705 
	C103.990501,237.269363 102.096466,238.880569 101.242889,240.945541 
	C95.643349,254.491730 90.106140,268.067139 84.837257,281.744263 
	C83.393478,285.492035 81.989342,289.678864 82.231560,293.560364 
	C82.676933,300.697540 84.230598,307.781616 85.562622,314.842468 
	C86.673691,320.732117 90.553314,322.206726 94.578300,317.757660 
	C96.681206,315.433197 97.416786,311.408203 97.751854,308.049744 
	C98.348221,302.072174 98.164352,296.017212 98.337883,289.995514 
	C98.346298,289.703247 98.626221,289.400238 98.823486,289.134735 
	C102.815506,283.761871 106.813972,278.393768 111.587524,272.995178 
z"/>
<path fill="#F5F5F5" opacity="1.000000" stroke="none" 
	d="
M228.660995,472.890198 
	C228.660980,475.349548 228.660980,477.327667 228.660980,479.659973 
	C222.402893,479.659973 216.391266,479.659973 210.177704,479.659973 
	C210.177704,473.023895 210.177704,466.438812 210.177704,459.563599 
	C216.179703,459.563599 222.080414,459.563599 228.661011,459.563599 
	C228.661011,463.884644 228.661011,468.146790 228.660995,472.890198 
z"/>
<path fill="#010101" opacity="1.000000" stroke="none" 
	d="
M319.875458,59.949547 
	C322.126190,60.716236 324.638184,61.072701 326.586823,62.313740 
	C344.051758,73.436836 357.589752,88.232460 367.003265,106.679893 
	C374.781982,121.923592 379.063690,138.149963 381.123566,155.167709 
	C383.269714,172.898178 381.167542,190.280060 376.688782,207.148483 
	C370.681610,229.773483 359.182709,249.391769 341.056458,265.070740 
	C326.907898,277.309052 311.050873,285.836639 293.144745,290.276764 
	C282.820160,292.836975 272.100830,294.233521 261.474121,295.058380 
	C238.822067,296.816742 217.249115,291.863678 196.924271,282.037750 
	C171.991501,269.984131 153.535706,251.317368 142.284729,225.862839 
	C133.634857,206.293060 129.037689,185.687912 130.165237,164.359299 
	C132.052887,128.652222 143.508286,96.854721 171.461365,72.735596 
	C175.527237,69.227394 179.953552,66.136932 184.400330,62.708797 
	C184.978149,67.761589 184.936783,72.418434 186.151306,76.720741 
	C187.594147,81.831795 191.021866,82.955666 196.150803,81.608177 
	C206.282654,78.946281 216.451004,76.416420 226.639572,73.979561 
	C233.633011,72.306892 234.572235,71.220367 234.010178,64.270775 
	C233.656509,59.897999 229.929001,56.719902 224.547958,57.050312 
	C213.319275,57.739780 202.113754,58.806854 190.740723,59.224026 
	C190.582703,58.729252 190.656021,58.767921 190.656021,58.767921 
	C204.027725,51.512196 218.359039,46.650528 233.245956,44.279182 
	C246.574066,42.156136 260.050690,41.667427 273.729889,43.616192 
	C287.893799,45.634003 301.206146,49.721191 314.205139,55.267414 
	C316.542877,56.264851 318.527405,58.090176 319.987366,59.697876 
	C306.892151,56.730206 294.245056,56.165691 281.530823,56.386616 
	C280.562347,56.403446 279.599304,56.781689 278.635406,56.999416 
	C273.917816,58.065014 272.172882,60.861565 271.918884,66.379120 
	C271.694611,71.251328 274.347809,72.289078 278.444366,73.170624 
	C288.966095,75.434837 299.312592,78.529236 309.855347,80.670113 
	C312.918884,81.292221 317.230865,80.867432 319.523224,79.073288 
	C323.680878,75.819206 323.325226,64.289444 319.875458,59.949547 
M196.928543,115.994347 
	C195.162491,116.337807 193.378296,116.607613 191.633423,117.037140 
	C182.798096,119.212105 176.609802,124.385483 174.335358,133.357086 
	C172.786209,139.467682 175.311279,144.977295 178.003525,150.311234 
	C182.708267,159.632416 189.334045,167.301086 199.444153,170.472748 
	C209.454681,173.613144 220.132706,173.291275 229.780365,169.602814 
	C239.459534,165.902298 247.747955,159.422302 252.681274,149.216385 
	C252.864731,150.311234 252.831345,151.027374 253.111694,151.586105 
	C253.626144,152.611359 254.266388,153.588257 254.957123,154.508011 
	C260.994049,162.546600 268.829346,168.616165 278.577362,170.459412 
	C302.138184,174.914505 315.371429,172.351425 327.476166,152.791199 
	C330.651367,147.660370 334.222778,140.893036 333.369629,135.555389 
	C331.754639,125.451820 326.013641,119.305229 314.736084,117.122742 
	C298.075287,113.898445 281.354889,114.529327 264.817963,118.301857 
	C260.228516,119.348831 254.962250,119.477150 252.770828,124.121452 
	C250.103760,122.693649 247.711792,120.848633 245.011398,120.060768 
	C229.587143,115.560646 213.744675,115.388741 196.928543,115.994347 
M352.617371,204.192261 
	C351.423065,203.636902 350.278076,202.903549 349.026001,202.556839 
	C343.476746,201.020172 339.342407,195.446121 332.703674,196.980087 
	C326.966370,198.305756 321.195801,199.495697 315.419556,200.643097 
	C304.347839,202.842361 293.310883,205.285400 282.164917,207.019043 
	C274.172577,208.262161 266.036652,208.886505 257.945984,209.111450 
	C249.072952,209.358154 240.023026,209.802444 231.328827,208.414841 
	C217.642822,206.230499 204.228241,202.396362 190.621582,199.641937 
	C184.048492,198.311325 177.318771,197.409668 170.625015,197.119064 
	C164.231201,196.841476 159.603210,201.762512 160.743469,207.380585 
	C163.216003,206.707993 165.635666,205.995483 168.084183,205.402008 
	C169.826385,204.979752 171.685364,204.213974 173.357513,204.472549 
	C180.149734,205.522858 187.058243,206.339905 193.618073,208.277985 
	C214.043991,214.312714 234.810760,217.120956 256.072876,216.084961 
	C266.825592,215.561050 277.673706,215.516754 288.285889,213.949829 
	C302.582642,211.838837 316.653198,208.231430 330.913177,205.810257 
	C334.335754,205.229141 338.147949,206.669754 341.734741,207.405716 
	C345.303711,208.138016 348.814606,209.153549 352.951721,210.196335 
	C352.951721,207.544235 352.951721,206.237732 352.617371,204.192261 
z"/>
<path fill="#040404" opacity="1.000000" stroke="none" 
	d="
M222.637512,68.922630 
	C213.635544,70.997559 205.013428,72.900345 196.459778,75.072762 
	C193.995132,75.698700 191.789963,77.265732 190.935715,73.233490 
	C190.241776,69.958046 187.971436,66.145256 193.116745,64.801483 
	C198.173950,63.480728 203.399414,62.622139 208.605103,62.107571 
	C213.050476,61.668152 217.614609,61.634857 222.044388,62.139732 
	C224.592041,62.430092 226.977036,64.147614 229.435242,65.222702 
	C229.288055,65.769203 229.140869,66.315704 228.993668,66.862206 
	C227.010254,67.525818 225.026825,68.189438 222.637512,68.922630 
z"/>
<path fill="#010101" opacity="1.000000" stroke="none" 
	d="
M190.544281,58.713684 
	C190.688187,59.022659 190.870499,59.347195 191.052811,59.671734 
	C190.787979,59.525158 190.523163,59.378582 190.457184,58.999962 
	C190.656021,58.767921 190.582703,58.729252 190.544281,58.713684 
z"/>
<path fill="#080808" opacity="1.000000" stroke="none" 
	d="
M275.187256,441.995758 
	C275.453217,427.551544 275.771362,413.607025 275.954834,399.660736 
	C276.013306,395.214813 277.633911,392.320984 282.383606,392.003723 
	C286.666687,391.717621 289.912231,394.462921 289.949890,399.264862 
	C290.114014,420.181671 290.074310,441.100800 289.972198,462.018402 
	C289.950928,466.378265 286.993347,468.854431 282.974396,468.818298 
	C278.943207,468.782043 276.260773,466.168396 276.016266,461.882812 
	C275.647827,455.425354 275.454834,448.957947 275.187256,441.995758 
z"/>
<path fill="#020202" opacity="1.000000" stroke="none" 
	d="
M405.901123,234.573120 
	C410.399536,242.222305 414.654633,249.559464 418.883911,256.911469 
	C419.206940,257.472992 419.204773,258.253571 419.593994,258.740204 
	C427.069733,268.087433 428.472626,279.492798 431.306213,290.616119 
	C433.353943,298.654633 432.603271,305.188843 428.672882,312.104706 
	C427.384460,314.371765 427.819183,317.555573 427.096741,320.220093 
	C425.689850,325.409180 421.970276,326.698975 417.989655,323.101379 
	C414.807343,320.225281 413.433350,316.548004 414.624329,311.897034 
	C415.278656,309.341705 414.463013,306.406006 414.287354,303.643280 
	C414.139587,301.318512 414.015106,298.989929 413.771545,296.674469 
	C413.625671,295.287598 413.665741,293.651184 412.940216,292.595795 
	C410.065521,288.414215 406.677826,284.572693 403.961121,280.299438 
	C402.054413,277.300232 399.179962,275.556305 396.717651,277.366791 
	C393.945160,279.405365 391.395508,282.900360 390.597839,286.207794 
	C389.321533,291.499878 389.904602,297.211639 389.059875,302.646271 
	C388.454987,306.538116 385.114380,308.363861 381.420807,308.436951 
	C377.772430,308.509064 376.880524,305.654724 376.893097,302.560944 
	C376.907471,299.020966 376.978760,295.478241 377.150055,291.942749 
	C377.308990,288.662537 378.338684,285.257019 377.750671,282.139496 
	C375.992279,272.816528 379.287750,264.642731 382.600433,256.388092 
	C383.394318,254.409851 384.426086,252.509003 385.035889,250.478668 
	C386.334534,246.154800 387.386444,241.774689 383.156189,238.198608 
	C387.662476,231.360672 394.625031,229.153336 401.583130,227.110458 
	C404.022797,226.394165 405.617493,227.545166 405.305634,230.506256 
	C405.176392,231.733368 405.521759,233.010483 405.901123,234.573120 
z"/>
<path fill="#020202" opacity="1.000000" stroke="none" 
	d="
M111.199326,273.009949 
	C106.813972,278.393768 102.815506,283.761871 98.823486,289.134735 
	C98.626221,289.400238 98.346298,289.703247 98.337883,289.995514 
	C98.164352,296.017212 98.348221,302.072174 97.751854,308.049744 
	C97.416786,311.408203 96.681206,315.433197 94.578300,317.757660 
	C90.553314,322.206726 86.673691,320.732117 85.562622,314.842468 
	C84.230598,307.781616 82.676933,300.697540 82.231560,293.560364 
	C81.989342,289.678864 83.393478,285.492035 84.837257,281.744263 
	C90.106140,268.067139 95.643349,254.491730 101.242889,240.945541 
	C102.096466,238.880569 103.990501,237.269363 105.082184,235.272705 
	C106.251999,233.133163 106.920280,230.722916 108.044006,228.553329 
	C108.718536,227.250992 110.047081,225.061050 110.737411,225.185135 
	C116.880722,226.289520 123.008728,227.847336 126.785881,233.437271 
	C127.474724,234.456680 126.781227,236.401566 126.747345,237.919708 
	C126.672455,241.276077 125.939156,244.789536 126.678329,247.958069 
	C128.453568,255.567917 131.160065,262.958710 132.990875,270.558319 
	C133.694061,273.477203 133.015457,276.723175 133.007980,279.820221 
	C132.992905,286.062714 132.986298,292.305389 133.015640,298.547791 
	C133.032303,302.092651 131.924316,304.970764 127.902481,304.916779 
	C123.952652,304.863770 121.439568,302.414246 121.057144,298.490356 
	C120.507835,292.854156 120.784332,287.107147 119.864105,281.547150 
	C119.149292,277.228271 116.382118,273.875244 111.199326,273.009949 
z"/>
<path fill="#F9F9F9" opacity="1.000000" stroke="none" 
	d="
M197.391541,115.991882 
	C213.744675,115.388741 229.587143,115.560646 245.011398,120.060768 
	C247.711792,120.848633 250.103760,122.693649 252.770828,124.121452 
	C254.962250,119.477150 260.228516,119.348831 264.817963,118.301857 
	C281.354889,114.529327 298.075287,113.898445 314.736084,117.122742 
	C326.013641,119.305229 331.754639,125.451820 333.369629,135.555389 
	C334.222778,140.893036 330.651367,147.660370 327.476166,152.791199 
	C315.371429,172.351425 302.138184,174.914505 278.577362,170.459412 
	C268.829346,168.616165 260.994049,162.546600 254.957123,154.508011 
	C254.266388,153.588257 253.626144,152.611359 253.111694,151.586105 
	C252.831345,151.027374 252.864731,150.311234 252.681274,149.216385 
	C247.747955,159.422302 239.459534,165.902298 229.780365,169.602814 
	C220.132706,173.291275 209.454681,173.613144 199.444153,170.472748 
	C189.334045,167.301086 182.708267,159.632416 178.003525,150.311234 
	C175.311279,144.977295 172.786209,139.467682 174.335358,133.357086 
	C176.609802,124.385483 182.798096,119.212105 191.633423,117.037140 
	C193.378296,116.607613 195.162491,116.337807 197.391541,115.991882 
M291.769226,166.833618 
	C305.530884,167.084900 315.747803,160.916840 322.797363,149.366165 
	C328.774811,139.572113 328.145416,131.190628 321.331146,126.645767 
	C316.043793,123.119316 304.744476,120.486259 296.553070,121.613731 
	C303.141479,130.211227 301.551758,137.910965 296.441956,143.913147 
	C290.959351,150.353226 282.017578,151.295151 275.328339,147.259064 
	C267.370422,142.457504 266.221680,133.045563 269.447662,124.251366 
	C260.218414,123.847656 256.474121,126.786552 256.082977,135.045425 
	C255.657730,144.025131 258.655609,151.447556 265.861145,157.258057 
	C273.239777,163.208084 281.754486,165.688919 291.769226,166.833618 
M217.546234,166.084534 
	C219.822571,165.690872 222.210815,165.612350 224.356415,164.850479 
	C235.224472,160.991455 244.869370,155.763748 247.755569,143.179550 
	C250.575653,130.883545 245.611603,123.809631 234.385178,124.364502 
	C238.333344,132.781143 236.941071,140.711929 230.613007,145.852158 
	C224.444550,150.862717 215.498337,151.117889 209.680542,145.888184 
	C206.234360,142.790344 203.313400,138.874344 204.054199,133.756973 
	C204.674057,129.475235 205.828735,125.270912 206.704163,121.228210 
	C204.164307,121.446442 200.803207,121.424484 197.577850,122.075294 
	C190.247192,123.554459 183.239609,125.265587 180.571198,134.023682 
	C178.967789,139.286255 181.811646,143.031433 183.406403,147.087997 
	C188.721954,160.608963 203.717377,168.936356 217.546234,166.084534 
M289.422394,142.075531 
	C294.495575,138.501526 296.457092,134.278839 293.630157,128.712143 
	C292.122192,125.742729 288.090973,123.153168 284.704803,122.256180 
	C279.953217,120.997467 276.238953,124.064865 274.001465,128.404053 
	C271.744141,132.781738 272.893860,137.005447 275.944702,140.230011 
	C279.421844,143.905167 283.909637,145.409988 289.422394,142.075531 
M225.728516,123.451424 
	C224.959625,123.148224 224.205200,122.799652 223.419464,122.549286 
	C218.728378,121.054535 213.565170,122.967789 211.005676,127.126610 
	C208.286194,131.545349 209.051926,136.846664 213.000214,140.935349 
	C216.480759,144.539612 220.720352,144.942047 225.453430,142.117401 
	C232.574265,137.867798 232.851151,132.074661 225.728516,123.451424 
z"/>
<path fill="#FAFAFA" opacity="1.000000" stroke="none" 
	d="
M352.784546,204.561752 
	C352.951721,206.237732 352.951721,207.544235 352.951721,210.196335 
	C348.814606,209.153549 345.303711,208.138016 341.734741,207.405716 
	C338.147949,206.669754 334.335754,205.229141 330.913177,205.810257 
	C316.653198,208.231430 302.582642,211.838837 288.285889,213.949829 
	C277.673706,215.516754 266.825592,215.561050 256.072876,216.084961 
	C234.810760,217.120956 214.043991,214.312714 193.618073,208.277985 
	C187.058243,206.339905 180.149734,205.522858 173.357513,204.472549 
	C171.685364,204.213974 169.826385,204.979752 168.084183,205.402008 
	C165.635666,205.995483 163.216003,206.707993 160.743469,207.380585 
	C159.603210,201.762512 164.231201,196.841476 170.625015,197.119064 
	C177.318771,197.409668 184.048492,198.311325 190.621582,199.641937 
	C204.228241,202.396362 217.642822,206.230499 231.328827,208.414841 
	C240.023026,209.802444 249.072952,209.358154 257.945984,209.111450 
	C266.036652,208.886505 274.172577,208.262161 282.164917,207.019043 
	C293.310883,205.285400 304.347839,202.842361 315.419556,200.643097 
	C321.195801,199.495697 326.966370,198.305756 332.703674,196.980087 
	C339.342407,195.446121 343.476746,201.020172 349.026001,202.556839 
	C350.278076,202.903549 351.423065,203.636902 352.784546,204.561752 
z"/>
<path fill="#F8F8F8" opacity="1.000000" stroke="none" 
	d="
M319.926025,59.990494 
	C323.325226,64.289444 323.680878,75.819206 319.523224,79.073288 
	C317.230865,80.867432 312.918884,81.292221 309.855347,80.670113 
	C299.312592,78.529236 288.966095,75.434837 278.444366,73.170624 
	C274.347809,72.289078 271.694611,71.251328 271.918884,66.379120 
	C272.172882,60.861565 273.917816,58.065014 278.635406,56.999416 
	C279.599304,56.781689 280.562347,56.403446 281.530823,56.386616 
	C294.245056,56.165691 306.892151,56.730206 319.679657,59.997101 
	C320.059540,60.131718 319.976593,60.031437 319.926025,59.990494 
M293.971588,70.434074 
	C300.924927,72.055336 307.878265,73.676598 315.240692,75.393242 
	C315.762695,73.687164 316.620026,71.719673 316.933167,69.669090 
	C317.422699,66.463142 317.134186,63.939064 312.648743,63.667862 
	C306.793182,63.313835 301.008331,61.810398 295.152496,61.436199 
	C290.427887,61.134300 285.619873,61.576946 280.902100,62.137520 
	C279.770508,62.271973 278.549683,64.055695 277.988983,65.349236 
	C277.780365,65.830505 279.212494,67.676720 280.122284,67.877632 
	C284.423065,68.827385 288.802032,69.423058 293.971588,70.434074 
z"/>
<path fill="#020202" opacity="1.000000" stroke="none" 
	d="
M291.328369,166.806122 
	C281.754486,165.688919 273.239777,163.208084 265.861145,157.258057 
	C258.655609,151.447556 255.657730,144.025131 256.082977,135.045425 
	C256.474121,126.786552 260.218414,123.847656 269.447662,124.251366 
	C266.221680,133.045563 267.370422,142.457504 275.328339,147.259064 
	C282.017578,151.295151 290.959351,150.353226 296.441956,143.913147 
	C301.551758,137.910965 303.141479,130.211227 296.553070,121.613731 
	C304.744476,120.486259 316.043793,123.119316 321.331146,126.645767 
	C328.145416,131.190628 328.774811,139.572113 322.797363,149.366165 
	C315.747803,160.916840 305.530884,167.084900 291.328369,166.806122 
z"/>
<path fill="#030303" opacity="1.000000" stroke="none" 
	d="
M217.113556,166.092239 
	C203.717377,168.936356 188.721954,160.608963 183.406403,147.087997 
	C181.811646,143.031433 178.967789,139.286255 180.571198,134.023682 
	C183.239609,125.265587 190.247192,123.554459 197.577850,122.075294 
	C200.803207,121.424484 204.164307,121.446442 206.704163,121.228210 
	C205.828735,125.270912 204.674057,129.475235 204.054199,133.756973 
	C203.313400,138.874344 206.234360,142.790344 209.680542,145.888184 
	C215.498337,151.117889 224.444550,150.862717 230.613007,145.852158 
	C236.941071,140.711929 238.333344,132.781143 234.385178,124.364502 
	C245.611603,123.809631 250.575653,130.883545 247.755569,143.179550 
	C244.869370,155.763748 235.224472,160.991455 224.356415,164.850479 
	C222.210815,165.612350 219.822571,165.690872 217.113556,166.092239 
z"/>
<path fill="#040404" opacity="1.000000" stroke="none" 
	d="
M289.153503,142.355835 
	C283.909637,145.409988 279.421844,143.905167 275.944702,140.230011 
	C272.893860,137.005447 271.744141,132.781738 274.001465,128.404053 
	C276.238953,124.064865 279.953217,120.997467 284.704803,122.256180 
	C288.090973,123.153168 292.122192,125.742729 293.630157,128.712143 
	C296.457092,134.278839 294.495575,138.501526 289.153503,142.355835 
z"/>
<path fill="#030303" opacity="1.000000" stroke="none" 
	d="
M226.024841,123.706253 
	C232.851151,132.074661 232.574265,137.867798 225.453430,142.117401 
	C220.720352,144.942047 216.480759,144.539612 213.000214,140.935349 
	C209.051926,136.846664 208.286194,131.545349 211.005676,127.126610 
	C213.565170,122.967789 218.728378,121.054535 223.419464,122.549286 
	C224.205200,122.799652 224.959625,123.148224 226.024841,123.706253 
z"/>
<path fill="#070707" opacity="1.000000" stroke="none" 
	d="
M293.562378,70.289505 
	C288.802032,69.423058 284.423065,68.827385 280.122284,67.877632 
	C279.212494,67.676720 277.780365,65.830505 277.988983,65.349236 
	C278.549683,64.055695 279.770508,62.271973 280.902100,62.137520 
	C285.619873,61.576946 290.427887,61.134300 295.152496,61.436199 
	C301.008331,61.810398 306.793182,63.313835 312.648743,63.667862 
	C317.134186,63.939064 317.422699,66.463142 316.933167,69.669090 
	C316.620026,71.719673 315.762695,73.687164 315.240692,75.393242 
	C307.878265,73.676598 300.924927,72.055336 293.562378,70.289505 
z"/>
</svg>